<?xml version="1.0" encoding="UTF-8"?>
<svg xmlns="http://www.w3.org/2000/svg" xmlns:xlink="http://www.w3.org/1999/xlink" width="15px" height="9px" viewBox="0 0 15 9" version="1.1">
<g id="surface1">
<path style=" stroke:none;fill-rule:nonzero;fill:rgb(0%,0%,0%);fill-opacity:1;" d="M 3.601562 3.375 C 3.429688 3.410156 3.285156 3.566406 3.25 3.753906 C 3.238281 3.816406 3.234375 4.078125 3.238281 4.554688 C 3.242188 5.230469 3.242188 5.269531 3.277344 5.34375 C 3.328125 5.460938 3.390625 5.53125 3.496094 5.585938 L 3.589844 5.632812 L 11.410156 5.632812 L 11.484375 5.597656 C 11.59375 5.542969 11.660156 5.476562 11.710938 5.363281 L 11.757812 5.265625 L 11.757812 3.734375 L 11.710938 3.636719 C 11.660156 3.523438 11.59375 3.457031 11.484375 3.402344 L 11.410156 3.367188 L 7.542969 3.363281 C 5.375 3.363281 3.640625 3.367188 3.601562 3.375 Z M 3.601562 3.375 "/>
</g>
</svg>
