<?xml version="1.0" standalone="no"?>
<!DOCTYPE svg PUBLIC "-//W3C//DTD SVG 20010904//EN"
 "http://www.w3.org/TR/2001/REC-SVG-20010904/DTD/svg10.dtd">
<svg version="1.0" xmlns="http://www.w3.org/2000/svg"
 width="640.000000pt" height="364.000000pt" viewBox="0 0 640.000000 364.000000"
 preserveAspectRatio="xMidYMid meet">

<g transform="translate(0.000000,364.000000) scale(0.100000,-0.100000)"
fill="#000000" stroke="none">
<path d="M3390 3626 c-253 -54 -455 -209 -561 -431 -58 -121 -73 -191 -73
-330 0 -113 2 -126 39 -235 49 -143 209 -465 401 -805 218 -388 303 -566 322
-676 4 -24 12 -43 17 -42 5 1 15 28 21 60 25 116 112 296 341 701 259 459 357
667 405 855 55 216 -21 478 -191 660 -114 120 -232 193 -381 231 -88 23 -258
29 -340 12z"/>
<path d="M2918 718 c250 -250 461 -455 470 -456 9 -1 34 -2 54 -2 20 1 39 -4
43 -9 3 -6 19 -8 35 -4 16 3 37 2 47 -2 10 -4 35 -7 56 -6 20 2 37 -1 37 -6 0
-8 26 -10 132 -12 20 0 39 -5 43 -10 3 -6 19 -8 35 -4 16 3 37 2 47 -2 10 -4
35 -8 55 -9 37 -2 26 10 -412 449 l-450 450 -297 34 c-164 18 -309 35 -323 38
-17 4 120 -140 428 -449z"/>
</g>
</svg>
