<?xml version="1.0" encoding="UTF-8"?>
<svg xmlns="http://www.w3.org/2000/svg" xmlns:xlink="http://www.w3.org/1999/xlink" width="15px" height="15px" viewBox="0 0 15 15" version="1.1">
<g id="surface1">
<path style=" stroke:none;fill-rule:nonzero;fill:rgb(0%,0%,0%);fill-opacity:1;" d="M 4.910156 3.09375 C 4.863281 3.105469 4.757812 3.175781 4.558594 3.328125 C 4.40625 3.445312 4.03125 3.726562 3.738281 3.949219 C 3.433594 4.171875 3.105469 4.417969 3.011719 4.488281 C 2.90625 4.570312 2.707031 4.722656 2.566406 4.828125 C 1.910156 5.320312 1.945312 5.285156 1.898438 5.378906 C 1.875 5.4375 1.863281 5.472656 1.875 5.53125 C 1.875 5.613281 1.898438 5.671875 1.945312 5.730469 C 1.96875 5.753906 2.039062 5.800781 2.71875 6.316406 C 2.894531 6.445312 3.140625 6.632812 3.28125 6.738281 C 3.410156 6.832031 3.632812 6.996094 3.773438 7.101562 C 3.914062 7.21875 4.21875 7.441406 4.441406 7.605469 C 4.664062 7.769531 4.863281 7.910156 4.898438 7.921875 C 5.027344 7.96875 5.203125 7.910156 5.285156 7.792969 L 5.320312 7.734375 L 5.320312 7.183594 L 5.332031 6.621094 L 9.5625 6.632812 L 9.714844 6.667969 C 10.300781 6.832031 10.734375 7.289062 10.863281 7.875 C 10.898438 8.050781 10.886719 8.367188 10.839844 8.53125 C 10.699219 9.046875 10.324219 9.445312 9.820312 9.609375 C 9.574219 9.703125 9.621094 9.703125 7.195312 9.703125 C 5.648438 9.703125 4.933594 9.703125 4.886719 9.714844 C 4.816406 9.738281 4.710938 9.84375 4.6875 9.914062 C 4.675781 9.960938 4.664062 10.195312 4.664062 10.816406 C 4.664062 11.601562 4.675781 11.660156 4.699219 11.71875 C 4.734375 11.789062 4.792969 11.847656 4.863281 11.894531 C 4.921875 11.917969 5.015625 11.917969 7.253906 11.917969 C 9.726562 11.917969 9.703125 11.917969 10.066406 11.847656 C 11.109375 11.636719 12.023438 11.003906 12.585938 10.089844 C 12.855469 9.65625 13.007812 9.210938 13.101562 8.625 C 13.136719 8.4375 13.125 7.851562 13.101562 7.640625 C 13.007812 7.078125 12.832031 6.597656 12.539062 6.164062 C 12.164062 5.554688 11.648438 5.097656 10.992188 4.792969 C 10.523438 4.558594 10.101562 4.441406 9.5625 4.40625 C 9.433594 4.394531 8.484375 4.394531 7.335938 4.394531 L 5.332031 4.394531 L 5.320312 3.84375 L 5.320312 3.292969 L 5.273438 3.234375 C 5.203125 3.117188 5.050781 3.058594 4.910156 3.09375 Z M 4.910156 3.09375 "/>
</g>
</svg>
